<svg id="blog-section-qa.svg" xmlns="http://www.w3.org/2000/svg" width="23.906" height="24" viewBox="0 0 23.906 24">
  <defs>
    <style>
      .cls-1 {
        fill: #127093;
        fill-rule: evenodd;
      }
    </style>
  </defs>
  <path id="_2" data-name="2" class="cls-1" d="M39.642,2418.61a1.244,1.244,0,0,1-1.78,0l-6.591-6.66a9.243,9.243,0,0,1-12.418-.73,9.64,9.64,0,0,1,0-13.47,9.271,9.271,0,0,1,13.244,0,9.632,9.632,0,0,1,.917,12.36l6.628,6.69A1.3,1.3,0,0,1,39.642,2418.61Zm-9.312-19.06a6.791,6.791,0,0,0-9.7,0,7.064,7.064,0,0,0,0,9.87,6.76,6.76,0,0,0,8.845.72l-1.731-1.75a1.283,1.283,0,0,1,0-1.8,1.244,1.244,0,0,1,1.781,0l1.7,1.71A7.069,7.069,0,0,0,30.33,2399.55Z" transform="translate(-16.125 -2394.97)"/>
</svg>
